Director: Shane Black
Writers: Drew Pearce (screenplay), Shane Black (screenplay), 4 more credits ┬╗
Stars: Robert Downey Jr., Gwyneth Paltrow, Guy Pearce



Video
ID                                       : 1
Format                                   : AVC
Format/Info                              : Advanced Video Codec
Format profile                           : High@L1.3
Format settings, CABAC                   : No
Format settings, ReFrames                : 1 frame
Codec ID                                 : V_MPEG4/ISO/AVC
Duration                                 : 1h 57mn
Bit rate                                 : 512 Kbps
Width                                    : 640 pixels
Height                                   : 360 pixels
Display aspect ratio                     : 16:9
Frame rate                               : 24.000 fps
Color space                              : YUV
Chroma subsampling                       : 4:2:0
Bit depth                                : 8 bits
Scan type                                : Progressive
Bits/(Pixel*Frame)                       : 0.093
Stream size                              : 423 MiB (78%)
Writing library                          : x264 core
===================================================================
Audio
ID                                       : 2
Format                                   : AC-3
Format/Info                              : Audio Coding 3
Mode extension                           : CM (complete main)
Codec ID                                 : A_AC3
Duration                                 : 1h 57mn
Bit rate mode                            : Constant
Bit rate                                 : 128 Kbps
Channel(s)                               : 2 channels
Channel positions                        : Front: L R
Sampling rate                            : 44.1 KHz
Bit depth                                : 16 bits
Compression mode                         : Lossy
Stream size                              : 108 MiB (20%)
Default                                  : Yes
Forced                                   : No


after download seed my torrent pl.